<svg id="Layer_1" data-name="Layer 1" xmlns="http://www.w3.org/2000/svg" viewBox="0 0 51 21"><defs><style>.cls-1{fill:#fcfdff;}.cls-2{fill:#2d54a4;}.cls-2,.cls-3{opacity:0.75;}.cls-3{fill:#3a6fce;}</style></defs><path class="cls-1" d="M5.48,10.77V11a1.22,1.22,0,0,1-1.21,1.23H1.58A1.23,1.23,0,0,1,.36,11V8.26A1.22,1.22,0,0,1,1.58,7h.11"/><path class="cls-2" d="M1.23,9.89V9.63A1.22,1.22,0,0,1,2.44,8.41H5.13A1.22,1.22,0,0,1,6.35,9.63v2.76c0,.68-1.33,1.23-1.33,1.23"/><path class="cls-1" d="M7.68,10.21c0-1.3.69-2.07,1.54-2.07a1.25,1.25,0,0,1,1,.5l-.31.46a.84.84,0,0,0-.64-.35c-.55,0-.94.55-.94,1.44s.36,1.45.93,1.45a.89.89,0,0,0,.71-.41l.32.44a1.25,1.25,0,0,1-1.06.58C8.35,12.25,7.68,11.52,7.68,10.21Z"/><path class="cls-1" d="M10.69,8.29a.37.37,0,0,1,.37-.4.4.4,0,0,1,0,.79A.37.37,0,0,1,10.69,8.29Zm.07.91h.59v3h-.59Z"/><path class="cls-1" d="M12.11,9.2h.48l0,.4h0a1.12,1.12,0,0,1,.83-.47c.54,0,.77.43.77,1.18v1.87h-.59V10.4c0-.49-.12-.67-.39-.67s-.37.13-.57.37v2.08h-.59Z"/><path class="cls-1" d="M14.81,10.69c0-1,.57-1.56,1.16-1.56s1,.58,1,1.41a2.82,2.82,0,0,1,0,.34h-1.6c0,.53.33.83.74.83a1,1,0,0,0,.59-.22l.2.44a1.43,1.43,0,0,1-.87.32C15.36,12.25,14.81,11.67,14.81,10.69Zm1.69-.28c0-.46-.17-.74-.51-.74s-.56.26-.61.74Z"/><path class="cls-3" d="M18.43,11.67l.34-.48a1.23,1.23,0,0,0,.88.45c.37,0,.58-.2.58-.51s-.22-.43-.52-.58l-.46-.24a1.12,1.12,0,0,1-.68-1.05A1.1,1.1,0,0,1,19.7,8.14a1.34,1.34,0,0,1,1,.51l-.3.44a1,1,0,0,0-.73-.34.47.47,0,0,0-.53.47c0,.31.26.43.54.56l.45.22a1.1,1.1,0,0,1,.68,1.07,1.15,1.15,0,0,1-1.21,1.18A1.58,1.58,0,0,1,18.43,11.67Z"/><path class="cls-3" d="M21.4,7.9H22V9l0,.57a1.08,1.08,0,0,1,.8-.45c.54,0,.78.43.78,1.18v1.87H23V10.4c0-.49-.12-.67-.39-.67s-.37.13-.58.37v2.08H21.4Z"/><path class="cls-3" d="M24.1,10.69c0-1,.57-1.56,1.19-1.56s1.2.57,1.2,1.56-.57,1.56-1.2,1.56S24.1,11.68,24.1,10.69Zm1.79,0c0-.59-.23-1-.6-1s-.59.4-.59,1,.23,1,.59,1S25.89,11.29,25.89,10.69Z"/><path class="cls-3" d="M26.82,9.23l.37,0h2.59v.56h-3Zm.34-.29c0-.61.26-1,.87-1a1,1,0,0,1,.49.11l-.11.52a.51.51,0,0,0-.31-.08c-.21,0-.35.17-.35.5v3.24h-.59Zm1.54,0c0-.61.24-1.06.84-1.06a1.16,1.16,0,0,1,.46.1l-.11.52a.61.61,0,0,0-.28-.07c-.21,0-.32.16-.32.5v3.3H28.7Z"/></svg>