<svg id="Layer_1" data-name="Layer 1" xmlns="http://www.w3.org/2000/svg" viewBox="0 0 100 21"><defs><style>.cls-1{fill:#fcfdff;}.cls-2{fill:#2d54a4;}.cls-2,.cls-3{opacity:0.75;}.cls-3{fill:#3a6fce;}</style></defs><path class="cls-1" d="M33,11.54v.58a2.78,2.78,0,0,1-2.77,2.79H24.14a2.78,2.78,0,0,1-2.78-2.79V5.82A2.77,2.77,0,0,1,24.14,3h.25"/><path class="cls-2" d="M23.33,9.53V9A2.78,2.78,0,0,1,26.1,6.16h6.13A2.78,2.78,0,0,1,35,9v6.3C35,16.79,32,18,32,18"/><path class="cls-1" d="M37.51,11.19c0-2.09,1.11-3.33,2.48-3.33a2,2,0,0,1,1.56.81L41,9.4a1.32,1.32,0,0,0-1-.56c-.88,0-1.51.88-1.51,2.32S39.08,13.5,40,13.5a1.42,1.42,0,0,0,1.15-.66l.51.71a2,2,0,0,1-1.7.93C38.59,14.48,37.51,13.31,37.51,11.19Z"/><path class="cls-1" d="M42.37,8.09a.59.59,0,1,1,1.18,0,.59.59,0,1,1-1.18,0Zm.11,1.48h1v4.79h-1Z"/><path class="cls-1" d="M44.65,9.57h.78l.07.65h0a1.78,1.78,0,0,1,1.33-.77c.87,0,1.25.7,1.25,1.91v3h-1V11.5c0-.79-.2-1.08-.64-1.08s-.59.2-.92.59v3.35h-1Z"/><path class="cls-1" d="M49,12c0-1.56.92-2.52,1.87-2.52s1.68.94,1.68,2.28a3.51,3.51,0,0,1,0,.54H49.94c.08.86.54,1.34,1.2,1.34a1.56,1.56,0,0,0,.94-.35l.32.7a2.23,2.23,0,0,1-1.39.52C49.89,14.48,49,13.55,49,12Zm2.73-.46c0-.74-.28-1.19-.84-1.19s-.89.42-1,1.19Z"/><path class="cls-3" d="M54.84,13.55l.56-.78a2,2,0,0,0,1.41.73c.61,0,.94-.33.94-.83s-.35-.69-.84-.94l-.74-.38a1.8,1.8,0,0,1-1.09-1.69,1.76,1.76,0,0,1,1.81-1.8,2.22,2.22,0,0,1,1.67.81l-.49.72a1.64,1.64,0,0,0-1.18-.55.75.75,0,0,0-.84.75c0,.51.41.69.86.91l.73.36a1.76,1.76,0,0,1,1.09,1.72,1.84,1.84,0,0,1-1.94,1.9A2.6,2.6,0,0,1,54.84,13.55Z"/><path class="cls-3" d="M59.63,7.47h1V9.25l0,.93a1.77,1.77,0,0,1,1.3-.73c.87,0,1.25.7,1.25,1.91v3h-1V11.5c0-.79-.2-1.08-.64-1.08s-.59.2-.92.59v3.35h-1Z"/><path class="cls-3" d="M64,12c0-1.6.92-2.52,1.93-2.52s1.94.92,1.94,2.52-.92,2.51-1.94,2.51S64,13.56,64,12Zm2.89,0c0-1-.36-1.6-1-1.6S65,11,65,12s.36,1.59,1,1.59S66.87,12.93,66.87,12Z"/><path class="cls-3" d="M68.38,9.62l.59,0h4.19v.89H68.38Zm.54-.47c0-1,.43-1.7,1.41-1.7a1.81,1.81,0,0,1,.79.17l-.18.84a1,1,0,0,0-.51-.12c-.34,0-.56.27-.56.81v5.21h-1Zm2.49-.08c0-1,.39-1.72,1.34-1.72a1.73,1.73,0,0,1,.75.17l-.18.84a.94.94,0,0,0-.44-.12c-.34,0-.52.26-.52.81v5.31h-1Z"/></svg>